<svg width="128" height="18" viewBox="0 0 128 18" fill="none" xmlns="http://www.w3.org/2000/svg">
<path d="M13.352 9.052C13.352 10.204 13.144 11.292 12.728 12.316C12.328 13.324 11.76 14.22 11.024 15.004C10.288 15.788 9.424 16.404 8.432 16.852C7.456 17.284 6.4 17.5 5.264 17.5H0.2V0.628H5.264C6.416 0.628 7.48 0.852 8.456 1.3C9.448 1.748 10.304 2.364 11.024 3.148C11.76 3.932 12.328 4.828 12.728 5.836C13.144 6.844 13.352 7.916 13.352 9.052ZM10.376 9.052C10.376 8.012 10.152 7.084 9.704 6.268C9.256 5.436 8.64 4.78 7.856 4.3C7.088 3.82 6.224 3.58 5.264 3.58H3.08V14.548H5.264C6.24 14.548 7.112 14.3 7.88 13.804C8.648 13.308 9.256 12.644 9.704 11.812C10.152 10.98 10.376 10.06 10.376 9.052ZM21.0727 17.812C19.9207 17.812 18.9047 17.564 18.0247 17.068C17.1607 16.556 16.4807 15.852 15.9847 14.956C15.5047 14.044 15.2647 12.988 15.2647 11.788C15.2647 9.676 15.7927 8.084 16.8487 7.012C17.9207 5.924 19.3287 5.38 21.0727 5.38C22.2087 5.38 23.2087 5.62 24.0727 6.1C24.9527 6.58 25.6407 7.3 26.1367 8.26C26.6327 9.204 26.8807 10.38 26.8807 11.788C26.8807 12.988 26.6327 14.044 26.1367 14.956C25.6407 15.852 24.9527 16.556 24.0727 17.068C23.2087 17.564 22.2087 17.812 21.0727 17.812ZM21.0727 15.052C21.7287 15.052 22.2807 14.9 22.7287 14.596C23.1927 14.276 23.5367 13.868 23.7607 13.372C24.0007 12.876 24.1207 12.348 24.1207 11.788C24.1207 10.78 23.8567 9.924 23.3287 9.22C22.8167 8.5 22.0647 8.14 21.0727 8.14C20.1127 8.14 19.3607 8.484 18.8167 9.172C18.2887 9.86 18.0247 10.732 18.0247 11.788C18.0247 12.364 18.1447 12.9 18.3847 13.396C18.6247 13.892 18.9687 14.292 19.4167 14.596C19.8807 14.9 20.4327 15.052 21.0727 15.052ZM39.1428 17.5H36.2628V16.564C36.0708 16.948 35.7028 17.236 35.1588 17.428C34.6308 17.62 34.0228 17.716 33.3348 17.716C32.6628 17.716 32.0068 17.628 31.3668 17.452C30.7428 17.26 30.2308 16.988 29.8308 16.636C28.8388 15.74 28.3428 14.412 28.3428 12.652V5.5H31.2228V12.652C31.2228 13.468 31.4628 14.06 31.9428 14.428C32.4388 14.78 33.0548 14.956 33.7908 14.956C34.1588 14.956 34.5348 14.876 34.9188 14.716C35.3028 14.556 35.6228 14.308 35.8788 13.972C36.1348 13.636 36.2628 13.196 36.2628 12.652V5.5H39.1428V17.5ZM52.1278 11.284C52.1278 12.132 52.0158 12.956 51.7918 13.756C51.5838 14.556 51.2558 15.268 50.8078 15.892C50.3598 16.5 49.7838 16.964 49.0798 17.284C48.6158 17.492 48.0718 17.588 47.4478 17.572C46.8238 17.572 46.2318 17.484 45.6718 17.308C45.1278 17.116 44.7118 16.86 44.4238 16.54V17.5H41.5438V0.699999H44.4238V5.908C44.7278 5.684 45.1278 5.532 45.6238 5.452C46.1198 5.372 46.5438 5.332 46.8958 5.332C48.0318 5.332 48.9838 5.604 49.7518 6.148C50.5358 6.676 51.1278 7.388 51.5278 8.284C51.9278 9.18 52.1278 10.18 52.1278 11.284ZM49.2238 11.284C49.2238 10.404 48.9918 9.716 48.5278 9.22C48.0798 8.708 47.4878 8.396 46.7518 8.284C46.0318 8.172 45.2558 8.284 44.4238 8.62V14.14C45.2718 14.652 46.0558 14.868 46.7758 14.788C47.5118 14.692 48.1038 14.348 48.5518 13.756C48.9998 13.148 49.2238 12.324 49.2238 11.284ZM56.9394 17.5H54.0594V0.699999H56.9394V17.5ZM70.5888 12.604H62.1888C62.2528 13.324 62.5248 13.876 63.0048 14.26C63.4848 14.644 64.0768 14.868 64.7808 14.932C65.4848 14.98 66.2048 14.884 66.9408 14.644C67.6928 14.388 68.3648 14.004 68.9568 13.492L70.5408 15.676C69.6608 16.412 68.7648 16.94 67.8528 17.26C66.9568 17.564 66.0688 17.716 65.1888 17.716C63.1568 17.716 61.6288 17.148 60.6048 16.012C59.5968 14.876 59.0928 13.268 59.0928 11.188C59.0928 10.004 59.3248 8.972 59.7888 8.092C60.2688 7.212 60.9408 6.532 61.8048 6.052C62.6848 5.572 63.7168 5.34 64.9008 5.356C67.4928 5.388 69.2208 6.404 70.0848 8.404C70.3248 8.98 70.4768 9.612 70.5408 10.3C70.6208 10.988 70.6368 11.756 70.5888 12.604ZM65.1648 8.044C64.1888 8.044 63.4448 8.308 62.9328 8.836C62.4368 9.364 62.1888 9.948 62.1888 10.588H68.1168C68.1168 9.932 67.8608 9.348 67.3488 8.836C66.8528 8.308 66.1248 8.044 65.1648 8.044ZM89.8946 17.764C88.7426 17.764 87.6786 17.54 86.7026 17.092C85.7266 16.628 84.8626 16.02 84.1106 15.268C83.3586 14.5 82.7666 13.604 82.3346 12.58C81.9026 11.54 81.6866 10.388 81.6866 9.124C81.6866 7.892 81.9026 6.756 82.3346 5.716C82.7826 4.66 83.3746 3.74 84.1106 2.956C84.8466 2.188 85.7026 1.58 86.6786 1.132C87.6706 0.683999 88.7426 0.459999 89.8946 0.459999C91.1106 0.459999 92.2706 0.739999 93.3746 1.3C94.4786 1.844 95.5026 2.692 96.4466 3.844L94.1186 5.764C93.4626 4.948 92.7826 4.364 92.0786 4.012C91.3746 3.644 90.6466 3.46 89.8946 3.46C89.1746 3.46 88.5026 3.604 87.8786 3.892C87.2706 4.18 86.7186 4.58 86.2226 5.092C85.7426 5.588 85.3666 6.18 85.0946 6.868C84.8226 7.54 84.6866 8.292 84.6866 9.124C84.6866 9.956 84.8226 10.708 85.0946 11.38C85.3666 12.036 85.7426 12.62 86.2226 13.132C86.7026 13.644 87.2546 14.044 87.8786 14.332C88.5026 14.62 89.1746 14.764 89.8946 14.764C90.6466 14.764 91.3746 14.588 92.0786 14.236C92.7826 13.868 93.4626 13.276 94.1186 12.46L96.4466 14.38C95.5026 15.532 94.4786 16.388 93.3746 16.948C92.2706 17.492 91.1106 17.764 89.8946 17.764ZM110.35 17.5L108.838 15.868C107.798 16.652 106.774 17.164 105.766 17.404C104.758 17.644 103.806 17.676 102.91 17.5C102.014 17.308 101.222 16.956 100.534 16.444C99.8461 15.932 99.3101 15.324 98.9261 14.62C98.5421 13.9 98.3581 13.132 98.3741 12.316C98.3901 11.5 98.6461 10.692 99.1421 9.892C99.6541 9.076 100.462 8.332 101.566 7.66L100.822 6.652C100.39 5.98 100.182 5.284 100.198 4.564C100.214 3.828 100.406 3.148 100.774 2.524C101.158 1.9 101.67 1.396 102.31 1.012C102.966 0.612 103.694 0.412 104.494 0.412C105.79 0.412 106.782 0.684 107.47 1.228C108.158 1.772 108.71 2.612 109.126 3.748L106.558 4.66C106.35 4.02 106.094 3.588 105.79 3.364C105.486 3.124 105.054 3.012 104.494 3.028C104.142 3.028 103.83 3.164 103.558 3.436C103.286 3.692 103.11 3.996 103.03 4.348C102.95 4.7 103.014 5.02 103.222 5.308L108.718 11.812C108.814 11.364 108.886 10.852 108.934 10.276C108.998 9.7 108.998 9.004 108.934 8.188H111.478C111.51 9.42 111.478 10.5 111.382 11.428C111.286 12.34 111.014 13.172 110.566 13.924L113.854 17.5H110.35ZM107.11 13.972L103.03 9.364C102.214 10.004 101.686 10.66 101.446 11.332C101.206 12.004 101.19 12.628 101.398 13.204C101.622 13.764 102.014 14.204 102.574 14.524C103.134 14.844 103.806 14.98 104.59 14.932C105.39 14.868 106.23 14.548 107.11 13.972ZM116.005 17.5V0.699999H122.389C123.269 0.699999 124.037 0.923999 124.693 1.372C125.349 1.804 125.853 2.38 126.205 3.1C126.573 3.82 126.757 4.604 126.757 5.452C126.757 5.964 126.677 6.492 126.517 7.036C126.357 7.58 126.117 8.084 125.797 8.548C126.341 8.996 126.765 9.556 127.069 10.228C127.373 10.9 127.525 11.62 127.525 12.388C127.525 13.012 127.405 13.628 127.165 14.236C126.941 14.844 126.621 15.396 126.205 15.892C125.805 16.372 125.333 16.764 124.789 17.068C124.261 17.356 123.693 17.5 123.085 17.5H116.005ZM118.957 7.66H122.317C122.605 7.66 122.861 7.548 123.085 7.324C123.309 7.1 123.485 6.82 123.613 6.484C123.757 6.148 123.829 5.804 123.829 5.452C123.829 4.988 123.701 4.58 123.445 4.228C123.189 3.876 122.837 3.7 122.389 3.7H118.957V7.66ZM118.957 14.5H123.085C123.341 14.5 123.581 14.396 123.805 14.188C124.029 13.964 124.213 13.692 124.357 13.372C124.501 13.052 124.573 12.724 124.573 12.388C124.573 11.876 124.437 11.444 124.165 11.092C123.909 10.724 123.573 10.54 123.157 10.54H118.957V14.5Z" fill="black"/>
</svg>
